<?xml version="1.0" encoding="utf-8"?>
<!-- Generator: Adobe Illustrator 19.1.0, SVG Export Plug-In . SVG Version: 6.00 Build 0)  -->
<svg version="1.0" id="katman_1" xmlns="http://www.w3.org/2000/svg" xmlns:xlink="http://www.w3.org/1999/xlink" x="0px" y="0px"
	 viewBox="94 287 783.3 268.9" style="enable-background:new 94 287 783.3 268.9;" xml:space="preserve">
<style type="text/css">
	.st0{clip-path:url(#SVGID_2_);}
	.st1{fill:#D2C1EB;}
	.st2{fill:#CBB7E8;}
	.st3{fill:#EFE8F6;}
	.st4{fill:#D8C8ED;}
	.st5{fill:#F2ECF9;}
	.st6{fill:#D9C9EE;}
	.st7{fill:#D7C7ED;}
	.st8{fill:#D8C9ED;}
	.st9{fill:#D3C1EB;}
	.st10{fill:url(#SVGID_3_);}
	.st11{fill:#E9E0F5;}
	.st12{fill:#DDD0F0;}
	.st13{fill:#EAE2F6;}
	.st14{fill:#D5C5EC;}
	.st15{fill:#DACBEE;}
	.st16{fill:#C4ACE5;}
	.st17{fill:#EDE5F8;}
	.st18{fill:#F7F4FC;}
	.st19{fill:#F2EEFA;}
	.st20{fill:#DFD2F1;}
	.st21{fill:#FAF7FD;}
	.st22{fill:#D2BFEB;}
	.st23{fill:#E7DDF4;}
	.st24{fill:#FCFBFE;}
	.st25{fill:#C8B2E7;}
	.st26{fill:#CAB5E7;}
	.st27{fill:#AE8EDB;}
	.st28{fill:#C5AEE5;}
	.st29{fill:#C9B4E7;}
	.st30{fill:#CAB5E6;}
	.st31{fill:#F6F3FB;}
	.st32{fill:#F9F6FC;}
	.st33{fill:#F2EEF9;}
	.st34{fill:#F7F4FB;}
	.st35{fill:#F0EAF8;}
	.st36{fill:#E2D7F2;}
	.st37{fill:#DACCEF;}
	.st38{fill:#DED1F0;}
	.st39{fill:#DFD3F1;}
	.st40{fill:#D9CAEE;}
	.st41{fill:#D9CBED;}
	.st42{fill:#DCCEEF;}
	.st43{fill:#C6AFE5;}
	.st44{fill:#CEBAE9;}
	.st45{fill:#C8B3E7;}
	.st46{fill:#C7B1E6;}
	.st47{fill:url(#triangle36_1_);}
	.st48{fill:#EFE9F8;}
	.st49{fill:#E8DFF5;}
	.st50{fill:#F5F1FB;}
	.st51{fill:#ECE4F6;}
	.st52{fill:#F8F6FC;}
	.st53{fill:#EDE6F7;}
	.st54{fill:url(#triangle36_2_);}
	.st55{fill:#FBFAFD;}
	.st56{fill:#EAE1F5;}
	.st57{fill:#DBCCEF;}
	.st58{fill:#C7B0E7;}
	.st59{fill:#FFFFFF;}
	.st60{fill:#4F4F4F;}
	.st61{fill:none;stroke:#4F4F4F;stroke-miterlimit:10;}
	.st62{fill:none;stroke:#4F4F4F;stroke-miterlimit:10;stroke-dasharray:5.015,5.015;}
	.st63{fill:none;stroke:#4F4F4F;stroke-miterlimit:10;stroke-dasharray:4.9476,4.9476;}
	.st64{fill:none;stroke:#4F4F4F;stroke-miterlimit:10;stroke-dasharray:5,5;}
	.st65{fill:#4A148C;}
	.st66{fill:url(#SVGID_4_);}
	.st67{fill:url(#SVGID_5_);}
	.st68{fill:#49148B;}
	.st69{fill:url(#SVGID_6_);}
	.st70{fill:url(#SVGID_7_);}
	.st71{fill:url(#SVGID_8_);}
	.st72{fill:url(#SVGID_9_);}
</style>
<g>
	<defs>
		<rect id="SVGID_1_" x="94.6" y="287.1" width="782.3" height="268.9"/>
	</defs>
	<clipPath id="SVGID_2_">
		<use xlink:href="#SVGID_1_"  style="overflow:visible;"/>
	</clipPath>
	<g class="st0">
		<polygon id="triangle36_95_" class="st1" points="668.3,419.1 731.5,474.6 830.8,427 		"/>
		<polygon id="triangle36_94_" class="st2" points="731.5,474.6 745,490.5 830.8,427 		"/>
		<polygon id="triangle36_91_" class="st3" points="487.8,367.5 537.4,450.8 519.4,458.8 		"/>
		<polygon id="triangle36_90_" class="st4" points="537.4,450.8 555.5,522.3 519.4,458.8 		"/>
		<polygon id="triangle36_87_" class="st5" points="244,466.7 271.1,427 361.4,462.7 		"/>
		<polygon class="st6" points="525.9,556 555.5,522.3 464.1,556 		"/>
		<polygon class="st7" points="464.1,556 555.5,522.3 456.2,522.3 429.6,556 		"/>
		<polygon class="st8" points="187.1,556 244,466.7 94.6,541.8 94.6,556 		"/>
		<polygon class="st1" points="94.6,422.5 94.6,457.1 131.2,470.7 		"/>
		<polygon class="st9" points="94.6,541.8 244,466.7 131.2,470.7 94.6,531.7 		"/>
		
			<linearGradient id="SVGID_3_" gradientUnits="userSpaceOnUse" x1="-602.9092" y1="1499.5149" x2="-598.2305" y2="1494.8362" gradientTransform="matrix(21 0 0 -33 12745 49727.9258)">
			<stop  offset="0" style="stop-color:#F7F7F7"/>
			<stop  offset="1" style="stop-color:#FAFAFA"/>
		</linearGradient>
		<polygon class="st10" points="94.6,288.4 94.6,326.1 153.8,288.4 		"/>
		<polygon id="triangle36_85_" class="st11" points="361.4,462.7 487.8,367.5 465.2,478.6 		"/>
		<polygon id="triangle36_84_" class="st12" points="456.2,522.3 555.5,522.3 465.2,478.6 		"/>
		<polygon id="triangle36_83_" class="st13" points="487.8,367.5 519.4,458.8 465.2,478.6 		"/>
		<polygon id="triangle36_82_" class="st14" points="519.4,458.8 555.5,522.3 465.2,478.6 		"/>
		<polygon id="triangle36_81_" class="st15" points="537.4,450.8 555.5,522.3 695.4,462.7 		"/>
		<polygon id="triangle36_80_" class="st15" points="537.4,450.8 668.3,419.1 695.4,462.7 		"/>
		<polygon id="triangle36_79_" class="st6" points="668.3,419.1 731.5,474.6 695.4,462.7 		"/>
		<polygon id="triangle36_78_" class="st16" points="731.5,474.6 745,490.5 695.4,462.7 		"/>
		<polygon id="triangle36_76_" class="st17" points="131.2,470.7 244,466.7 239.5,442.9 		"/>
		<polygon id="triangle36_75_" class="st18" points="221.5,300 271.1,427 239.5,442.9 		"/>
		<polygon id="triangle36_74_" class="st19" points="244,466.7 271.1,427 239.5,442.9 		"/>
		<polygon class="st20" points="94.6,388.7 94.6,422.5 131.2,470.7 239.5,442.9 		"/>
		<polygon class="st21" points="94.6,388.7 239.5,442.9 221.5,300 94.6,358.8 		"/>
		<polygon class="st22" points="320.2,556 244,466.7 187.1,556 		"/>
		<polygon class="st23" points="327.5,556 361.4,462.7 244,466.7 320.2,556 		"/>
		<polygon id="triangle36_72_" class="st24" points="501.3,288.1 514.8,288.4 429.1,288.4 		"/>
		<polygon class="st25" points="877,556 877,552.1 867.4,556 		"/>
		<polygon class="st26" points="877,408.8 830.8,427 877,459.2 		"/>
		<polygon class="st27" points="828.6,556 862.4,538.1 745,490.5 763.7,556 		"/>
		<polygon id="triangle36_66_" class="st25" points="745,490.5 830.8,427 862.4,538.1 		"/>
		<polygon class="st28" points="862.4,556 862.4,538.1 828.6,556 		"/>
		<polygon class="st29" points="877,459.2 830.8,427 862.4,538.1 877,535.2 		"/>
		<polygon class="st30" points="867.4,556 877,552.1 877,535.2 862.4,538.1 862.4,556 		"/>
		<polygon id="triangle36_58_" class="st31" points="221.5,300 271.1,427 460.7,331.7 		"/>
		<polygon id="triangle36_57_" class="st32" points="221.5,300 284.7,288.4 460.7,331.7 		"/>
		<polygon id="triangle36_56_" class="st33" points="271.1,427 361.4,462.7 460.7,331.7 		"/>
		<polygon id="triangle36_55_" class="st34" points="284.7,288.4 429.1,288.4 460.7,331.7 		"/>
		<polygon id="triangle36_54_" class="st35" points="361.4,462.7 487.8,367.5 460.7,331.7 		"/>
		<polygon id="triangle36_53_" class="st34" points="429.1,288.4 501.3,288.1 460.7,331.7 		"/>
		<polygon class="st36" points="344.6,556 402,538.1 361.4,462.7 327.5,556 		"/>
		<polygon class="st37" points="408.8,556 402,538.1 344.6,556 		"/>
		<polygon id="triangle36_51_" class="st38" points="361.4,462.7 465.2,478.6 402,538.1 		"/>
		<polygon class="st39" points="429.6,556 456.2,522.3 402,538.1 408.8,556 		"/>
		<polygon id="triangle36_50_" class="st40" points="456.2,522.3 465.2,478.6 402,538.1 		"/>
		<polygon class="st31" points="877,288.4 844.3,288.4 877,288.4 		"/>
		<polygon class="st41" points="94.6,457.1 94.6,482.1 131.2,470.7 		"/>
		<polygon class="st42" points="94.6,482.1 94.6,531.7 131.2,470.7 		"/>
		<polygon class="st43" points="587.4,556 555.5,522.3 525.9,556 		"/>
		<polygon class="st44" points="665.5,556 695.4,462.7 555.5,522.3 587.4,556 		"/>
		<polygon class="st45" points="693.9,556 745,490.5 695.4,462.7 665.5,556 		"/>
		<polygon class="st46" points="763.7,556 745,490.5 693.9,556 		"/>
		
			<linearGradient id="triangle36_1_" gradientUnits="userSpaceOnUse" x1="-594.283" y1="1486.0029" x2="-591.7491" y2="1483.469" gradientTransform="matrix(32 0 0 -9 19328.9961 13649.7998)">
			<stop  offset="0" style="stop-color:#FDFDFD"/>
			<stop  offset="1" style="stop-color:#F9F9F9"/>
		</linearGradient>
		<polygon id="triangle36_35_" class="st47" points="284.7,288.4 429.1,288.4 316.3,288.4 		"/>
		<polygon id="triangle36_27_" class="st48" points="460.7,331.7 487.8,367.5 523.9,323.8 		"/>
		<polygon id="triangle36_26_" class="st5" points="460.7,331.7 501.3,288.1 523.9,323.8 		"/>
		<polygon id="triangle36_25_" class="st49" points="487.8,367.5 537.4,450.8 523.9,323.8 		"/>
		<polygon id="triangle36_24_" class="st50" points="501.3,288.1 600.6,288.4 523.9,323.8 		"/>
		<polygon id="triangle36_23_" class="st51" points="537.4,450.8 668.3,419.1 523.9,323.8 		"/>
		<polygon id="triangle36_22_" class="st52" points="600.6,288.4 681.9,288.4 523.9,323.8 		"/>
		<polygon id="triangle36_21_" class="st53" points="668.3,419.1 681.9,288.4 523.9,323.8 		"/>
		
			<linearGradient id="triangle36_2_" gradientUnits="userSpaceOnUse" x1="-600.2073" y1="1497.4689" x2="-593.6099" y2="1490.8715" gradientTransform="matrix(19 0 0 -19 11588 28682.5996)">
			<stop  offset="0" style="stop-color:#F3F3F3"/>
			<stop  offset="1" style="stop-color:#FCFCFC"/>
		</linearGradient>
		<polygon id="triangle36_17_" class="st54" points="221.5,300 284.7,288.4 198.9,288.4 		"/>
		<polygon class="st55" points="94.6,348.1 198.9,288.4 153.8,288.4 94.6,326.1 		"/>
		<polygon class="st24" points="94.6,358.8 221.5,300 198.9,288.4 94.6,348.1 		"/>
		<polygon id="triangle36_16_" class="st33" points="668.3,419.1 681.9,288.4 794.7,288.4 		"/>
		<polygon id="triangle36_15_" class="st56" points="668.3,419.1 830.8,427 794.7,288.4 		"/>
		<polygon class="st57" points="877,288.4 794.7,288.4 830.8,427 877,318.7 		"/>
		<polygon class="st33" points="877,288.4 844.3,288.4 794.7,288.4 877,288.4 		"/>
		<polygon class="st12" points="877,318.7 830.8,427 877,385.4 		"/>
		<polygon class="st58" points="877,385.4 830.8,427 877,408.8 		"/>
	</g>
</g>
<title>Asset 5</title>
<rect x="720.3" y="356.4" class="st59" width="125" height="127.2"/>
<rect x="115.5" y="505.4" class="st59" width="214" height="26.4"/>
<rect x="115.5" y="310.6" class="st59" width="214" height="26.4"/>
<rect x="115.5" y="353.1" class="st59" width="214" height="137.6"/>
<g>
	<path class="st60" d="M123.9,470.2c0-2.1,1-3.3,2.8-3.3c1.9,0,2.9,1.2,2.9,3.3v2.2h2.7v1h-8.4V470.2z M128.8,472.4v-2.2
		c0-1.5-0.7-2.4-2-2.4c-1.3,0-1.9,0.9-1.9,2.4v2.2H128.8z"/>
	<path class="st60" d="M128.9,458.4c2.2,0,3.5,1.3,3.5,3.5c0,2.2-1.3,3.5-3.5,3.5h-4.9v-1h4.9c1.6,0,2.6-1,2.6-2.6
		c0-1.6-0.9-2.6-2.6-2.6h-4.9v-1H128.9z"/>
	<path class="st60" d="M123.9,452.5c0-1.7,0.8-2.7,2.1-2.7c1,0,1.7,0.6,1.9,1.5c0.2-1.2,1-1.9,2.1-1.9c1.4,0,2.3,1.1,2.3,3v3.6h-8.4
		V452.5z M127.6,455.1v-2.5c0-1.1-0.5-1.8-1.4-1.8c-0.9,0-1.3,0.7-1.3,1.8v2.5H127.6z M131.4,455.1v-2.5c0-1.4-0.5-2.2-1.5-2.2
		c-0.9,0-1.5,0.8-1.5,2.2v2.5H131.4z"/>
	<path class="st60" d="M131.4,442.8h0.9v4.6h-8.4v-1h7.5V442.8z"/>
	<path class="st60" d="M132.3,441.3h-8.4v-1h8.4V441.3z"/>
	<path class="st60" d="M125.1,431.1l0.7,0.6c-0.7,0.6-1.1,1.6-1.1,2.5c0,1.9,1.5,3.4,3.3,3.4c1.8,0,3.3-1.5,3.3-3.4
		c0-0.9-0.4-1.8-1-2.5l0.7-0.6c0.8,0.8,1.3,2,1.3,3.1c0,2.4-1.9,4.3-4.3,4.3c-2.4,0-4.2-1.9-4.2-4.4
		C123.9,433,124.4,431.9,125.1,431.1z"/>
	<path class="st60" d="M130.2,425.4l2.1,0.9v1l-8.4-3.8v-1l8.4-3.8v1l-2.1,0.9V425.4z M125,423.1l4.3,1.9v-3.8L125,423.1z"/>
	<path class="st60" d="M123.9,414.1c0-2.4,1.8-4.3,4.2-4.3s4.2,1.9,4.2,4.4v3.4h-8.4V414.1z M131.4,416.5v-2.4
		c0-1.9-1.4-3.3-3.3-3.3c-1.9,0-3.3,1.5-3.3,3.4v2.4H131.4z"/>
	<path class="st60" d="M123.9,404.6c0-2.4,1.8-4.3,4.2-4.3s4.2,1.9,4.2,4.4v3.4h-8.4V404.6z M131.4,407v-2.4c0-1.9-1.4-3.3-3.3-3.3
		c-1.9,0-3.3,1.5-3.3,3.4v2.4H131.4z"/>
	<path class="st60" d="M129.7,394.8c0,0.2,0,0.4,0,0.6v2.2h2.7v1h-8.4v-3.2c0-2.1,1-3.3,2.8-3.3c1.4,0,2.3,0.7,2.7,1.9l2.9-2v1.1
		L129.7,394.8z M128.8,395.3c0-1.5-0.7-2.4-2-2.4c-1.3,0-1.9,0.9-1.9,2.4v2.2h3.9V395.3z"/>
	<path class="st60" d="M124.9,388.9h2.8v-4.2h0.9v4.2h2.9V384h0.9v5.9h-8.4v-5.7h0.9V388.9z"/>
	<path class="st60" d="M124.7,376.9l0.9,0.4c-0.5,0.8-0.7,1.6-0.7,2.3c0,1.1,0.4,1.8,1.1,1.8c2.2,0,1-4.7,4.1-4.7
		c1.4,0,2.3,1.2,2.3,3c0,1.2-0.5,2.4-1.3,3.2l-0.9-0.4c0.8-0.8,1.2-1.8,1.2-2.8c0-1.2-0.5-2-1.3-2c-2.2,0-1,4.7-4,4.7
		c-1.3,0-2.2-1.2-2.2-2.9C123.9,378.6,124.2,377.6,124.7,376.9z"/>
	<path class="st60" d="M124.7,369.6l0.9,0.4c-0.5,0.8-0.7,1.6-0.7,2.3c0,1.1,0.4,1.8,1.1,1.8c2.2,0,1-4.7,4.1-4.7
		c1.4,0,2.3,1.2,2.3,3c0,1.2-0.5,2.4-1.3,3.2l-0.9-0.4c0.8-0.8,1.2-1.8,1.2-2.8c0-1.2-0.5-2-1.3-2c-2.2,0-1,4.7-4,4.7
		c-1.3,0-2.2-1.2-2.2-2.9C123.9,371.3,124.2,370.3,124.7,369.6z"/>
</g>
<g>
	<path class="st60" d="M513.8,440.1h2v-2.6h0.6v2.6h2.4v0.6h-5.6v-3.6h0.6V440.1z"/>
	<path class="st60" d="M515.9,430.6c1.6,0,2.8,1.3,2.8,2.9c0,1.6-1.3,2.9-2.8,2.9c-1.6,0-2.8-1.3-2.8-2.9
		C513.1,431.9,514.4,430.6,515.9,430.6z M515.9,435.8c1.2,0,2.2-1,2.2-2.3s-1-2.3-2.2-2.3c-1.2,0-2.2,1-2.2,2.3
		S514.7,435.8,515.9,435.8z"/>
	<path class="st60" d="M518.1,426h0.6v3.1h-5.6v-0.6h5V426z"/>
	<path class="st60" d="M513.1,422.4c0-1.6,1.2-2.9,2.8-2.9c1.6,0,2.8,1.3,2.8,2.9v2.2h-5.6V422.4z M518.1,424v-1.6
		c0-1.2-0.9-2.2-2.2-2.2c-1.3,0-2.2,1-2.2,2.2v1.6H518.1z"/>
	<path class="st60" d="M518.7,411.5h-2.5v3.4h2.5v0.6h-5.6v-0.6h2.5v-3.4h-2.5v-0.6h5.6V411.5z"/>
	<path class="st60" d="M513.8,408.2h1.8v-2.8h0.6v2.8h1.9v-3.3h0.6v3.9h-5.6V405h0.6V408.2z"/>
	<path class="st60" d="M516.9,400.8c0,0.1,0,0.2,0,0.4v1.5h1.8v0.6h-5.6v-2.1c0-1.4,0.7-2.2,1.9-2.2c0.9,0,1.6,0.4,1.8,1.3l1.9-1.3
		v0.7L516.9,400.8z M516.3,401.2c0-1-0.4-1.6-1.3-1.6c-0.8,0-1.3,0.6-1.3,1.6v1.5h2.6V401.2z"/>
	<path class="st60" d="M513.8,396.6h1.8v-2.8h0.6v2.8h1.9v-3.3h0.6v3.9h-5.6v-3.8h0.6V396.6z"/>
</g>
<g>
	<path class="st60" d="M855.1,456.2c0-2.1,1-3.3,2.8-3.3c1.9,0,2.9,1.2,2.9,3.3v2.2h2.7v1h-8.4V456.2z M859.9,458.4v-2.2
		c0-1.5-0.7-2.4-2-2.4c-1.3,0-1.9,0.9-1.9,2.4v2.2H859.9z"/>
	<path class="st60" d="M860.8,447.5c0,0.2,0,0.4,0,0.6v2.2h2.7v1h-8.4v-3.2c0-2.1,1-3.3,2.8-3.3c1.4,0,2.3,0.7,2.7,1.9l2.9-2v1.1
		L860.8,447.5z M859.9,448.1c0-1.5-0.7-2.4-2-2.4c-1.3,0-1.9,0.9-1.9,2.4v2.2h3.9V448.1z"/>
	<path class="st60" d="M863.5,442.6h-8.4v-1h8.4V442.6z"/>
	<path class="st60" d="M863.5,436.9l-8.4,3.4v-1l7.3-2.9l-7.3-2.9v-1l8.4,3.4V436.9z"/>
	<path class="st60" d="M861.4,431l2.1,0.9v1l-8.4-3.8v-1l8.4-3.8v1l-2.1,0.9V431z M856.2,428.7l4.3,1.9v-3.8L856.2,428.7z"/>
	<path class="st60" d="M856,421.3h7.5v1H856v2.7h-0.9v-6.4h0.9V421.3z"/>
	<path class="st60" d="M856,416.2h2.8V412h0.9v4.2h2.9v-4.9h0.9v5.9h-8.4v-5.7h0.9V416.2z"/>
	<path class="st60" d="M859.5,403.5l1.8,1.6h2.2v1h-8.4v-1h4.8l-4.8-4.5v-1.1l3.6,3.3l4.8-3.6v1.2L859.5,403.5z"/>
	<path class="st60" d="M856,396.7h2.8v-4.2h0.9v4.2h2.9v-4.9h0.9v5.9h-8.4V392h0.9V396.7z"/>
	<path class="st60" d="M863.5,386.9v0.9h-2.8l-5.6,3.3v-1l4.4-2.7l-4.4-2.7v-1l5.5,3.2H863.5z"/>
</g>
<g>
	<g>
		<polyline class="st61" points="877,553.4 877,555.9 874.5,555.9 		"/>
		<line class="st62" x1="869.5" y1="555.9" x2="99.7" y2="555.9"/>
		<polyline class="st61" points="97.1,555.9 94.6,555.9 94.6,553.4 		"/>
		<line class="st63" x1="94.6" y1="548.4" x2="94.6" y2="293.6"/>
		<polyline class="st61" points="94.6,291.2 94.6,288.7 97.1,288.7 		"/>
		<line class="st62" x1="102.2" y1="288.7" x2="872" y2="288.7"/>
		<polyline class="st61" points="874.5,288.7 877,288.7 877,291.2 		"/>
		<line class="st63" x1="877" y1="296.1" x2="877" y2="550.9"/>
	</g>
</g>
<path class="st64" d="M516.3,287.8v96.4"/>
<path class="st64" d="M516.3,449.3v106.6"/>
<g>
	<path class="st60" d="M697.8,440.1h2v-2.6h0.6v2.6h2.4v0.6h-5.6v-3.6h0.6V440.1z"/>
	<path class="st60" d="M699.9,430.6c1.6,0,2.8,1.3,2.8,2.9c0,1.6-1.3,2.9-2.8,2.9c-1.6,0-2.8-1.3-2.8-2.9
		C697.1,431.9,698.4,430.6,699.9,430.6z M699.9,435.8c1.2,0,2.2-1,2.2-2.3s-1-2.3-2.2-2.3c-1.2,0-2.2,1-2.2,2.3
		S698.7,435.8,699.9,435.8z"/>
	<path class="st60" d="M702.1,426h0.6v3.1h-5.6v-0.6h5V426z"/>
	<path class="st60" d="M697.1,422.4c0-1.6,1.2-2.9,2.8-2.9c1.6,0,2.8,1.3,2.8,2.9v2.2h-5.6V422.4z M702.1,424v-1.6
		c0-1.2-0.9-2.2-2.2-2.2c-1.3,0-2.2,1-2.2,2.2v1.6H702.1z"/>
	<path class="st60" d="M702.7,411.5h-2.5v3.4h2.5v0.6h-5.6v-0.6h2.5v-3.4h-2.5v-0.6h5.6V411.5z"/>
	<path class="st60" d="M697.8,408.2h1.8v-2.8h0.6v2.8h1.9v-3.3h0.6v3.9h-5.6V405h0.6V408.2z"/>
	<path class="st60" d="M700.9,400.8c0,0.1,0,0.2,0,0.4v1.5h1.8v0.6h-5.6v-2.1c0-1.4,0.7-2.2,1.9-2.2c0.9,0,1.6,0.4,1.8,1.3l1.9-1.3
		v0.7L700.9,400.8z M700.3,401.2c0-1-0.4-1.6-1.3-1.6c-0.8,0-1.3,0.6-1.3,1.6v1.5h2.6V401.2z"/>
	<path class="st60" d="M697.8,396.6h1.8v-2.8h0.6v2.8h1.9v-3.3h0.6v3.9h-5.6v-3.8h0.6V396.6z"/>
</g>
<path class="st64" d="M700.3,287.8v96.4"/>
<path class="st64" d="M700.3,449.3v106.6"/>
<rect x="541.5" y="327.4" class="st59" width="303.9" height="20.7"/>
<rect x="541.5" y="494.4" class="st59" width="303.9" height="20.7"/>
<g>
	<g>
		<path class="st65" d="M364.4,479.1v2.7h4.9v2h-4.9v4.1H362V477h7.8l0,2H364.4z"/>
		<path class="st65" d="M386.6,482.4c0,3.1-2.5,5.5-5.8,5.5s-5.8-2.4-5.8-5.5c0-3.1,2.5-5.5,5.8-5.5S386.6,479.3,386.6,482.4z
			 M377.5,482.4c0,1.9,1.5,3.4,3.3,3.4c1.8,0,3.3-1.5,3.3-3.4s-1.5-3.3-3.3-3.3C379,479.1,377.5,480.5,377.5,482.4z"/>
		<path class="st65" d="M399.9,485.7v2.1h-7.1V477h2.4v8.7H399.9z"/>
		<path class="st65" d="M415.5,487.8v-7.3l-2.9,6.2h-1.6l-2.9-6.2v7.3H406V477h2.7l3.1,6.6l3.1-6.6h2.7v10.8H415.5z"/>
		<path class="st65" d="M433.8,478.6l-0.7,0.9c-0.8-0.8-2-1.4-3.2-1.4c-2.4,0-4.4,1.9-4.4,4.3c0,2.4,2,4.3,4.4,4.3
			c1.2,0,2.3-0.5,3.2-1.3l0.8,0.8c-1.1,1-2.5,1.7-4,1.7c-3.1,0-5.6-2.4-5.6-5.5c0-3,2.5-5.4,5.6-5.4
			C431.3,477,432.7,477.6,433.8,478.6z"/>
		<path class="st65" d="M450.6,482.4c0,3-2.5,5.5-5.6,5.5c-3.2,0-5.7-2.4-5.7-5.5c0-3.1,2.5-5.4,5.7-5.4
			C448.1,477,450.6,479.4,450.6,482.4z M440.6,482.4c0,2.4,2,4.3,4.4,4.3c2.4,0,4.4-1.9,4.4-4.3s-2-4.3-4.4-4.3
			C442.6,478.2,440.6,480.1,440.6,482.4z"/>
		<path class="st65" d="M457.5,487.8V477h1.2v10.8H457.5z"/>
		<path class="st65" d="M474.4,487.8l-6.5-8.7v8.7h-1.2V477h1.3l6.5,8.7V477h1.2v10.8H474.4z"/>
	</g>
	<linearGradient id="SVGID_4_" gradientUnits="userSpaceOnUse" x1="394.951" y1="357.9646" x2="394.951" y2="377.9171">
		<stop  offset="0" style="stop-color:#49148B"/>
		<stop  offset="1" style="stop-color:#49148B;stop-opacity:0.9"/>
	</linearGradient>
	<circle class="st66" cx="395" cy="367.9" r="10"/>
	<linearGradient id="SVGID_5_" gradientUnits="userSpaceOnUse" x1="361.9069" y1="397.4988" x2="385.9389" y2="397.4988">
		<stop  offset="0" style="stop-color:#49148B"/>
		<stop  offset="1" style="stop-color:#49148B"/>
	</linearGradient>
	<circle class="st67" cx="373.9" cy="397.5" r="12"/>
	<circle class="st68" cx="362.2" cy="366" r="2.6"/>
	<circle class="st68" cx="376.3" cy="362.5" r="3.4"/>
	<circle class="st68" cx="365.2" cy="378.1" r="1.8"/>
	<circle class="st68" cx="379.8" cy="376.9" r="4.5"/>
	<linearGradient id="SVGID_6_" gradientUnits="userSpaceOnUse" x1="412.8322" y1="458.0774" x2="430.3176" y2="358.9128">
		<stop  offset="0" style="stop-color:#12005E"/>
		<stop  offset="0.9" style="stop-color:#713BB3"/>
		<stop  offset="1" style="stop-color:#763EB7"/>
	</linearGradient>
	<path class="st69" d="M420.6,358c-4.8,0-9.5,0.7-14,2c2.1,2.5,3.3,5.7,3.3,9.2c0,8-6.5,14.5-14.5,14.5c-3.7,0-7.1-1.4-9.7-3.7
		c-0.5,1.6-2,2.8-3.8,3c5.2,2.7,8.8,8.2,8.8,14.5c0,9.1-7.4,16.4-16.4,16.4c-1.3,0-2.6-0.2-3.8-0.4c2.6,25.4,24,45.2,50.1,45.2
		c27.8,0,50.3-22.5,50.3-50.3C471,380.5,448.4,358,420.6,358z M428.4,415.8c-3.9,0.1-12.3,0-12.3,0c-2.3,18-16.2,16.6-16.2,16.6
		l6-26.7h30.5C436.4,405.7,432.3,415.6,428.4,415.8z M442.2,399.1h-34.5c1.9-10.1,7.7-11.3,7.7-11.3h37
		C447.8,399.1,442.2,399.1,442.2,399.1z"/>
</g>
<g>
	<g>
		<path class="st65" d="M577.3,460.5v1.7h3.2v1.3h-3.2v2.7h-1.6v-7.1h5.1l0,1.3H577.3z"/>
		<path class="st65" d="M591.9,462.7c0,2-1.6,3.6-3.8,3.6s-3.8-1.6-3.8-3.6c0-2.1,1.6-3.6,3.8-3.6S591.9,460.7,591.9,462.7z
			 M585.9,462.7c0,1.2,1,2.2,2.2,2.2s2.1-1,2.1-2.2s-1-2.2-2.1-2.2C586.9,460.5,585.9,461.5,585.9,462.7z"/>
		<path class="st65" d="M600.6,464.9v1.4H596v-7.1h1.6v5.7H600.6z"/>
		<path class="st65" d="M610.8,466.3v-4.8l-1.9,4.1h-1l-1.9-4.1v4.8h-1.4v-7.1h1.8l2.1,4.3l2.1-4.3h1.8v7.1H610.8z"/>
		<path class="st65" d="M622.8,460.2l-0.5,0.6c-0.5-0.6-1.3-0.9-2.1-0.9c-1.6,0-2.9,1.2-2.9,2.8c0,1.6,1.3,2.8,2.9,2.8
			c0.8,0,1.5-0.3,2.1-0.9l0.5,0.6c-0.7,0.7-1.7,1.1-2.6,1.1c-2,0-3.7-1.6-3.7-3.6c0-2,1.6-3.6,3.7-3.6
			C621.2,459.2,622.1,459.6,622.8,460.2z"/>
		<path class="st65" d="M633.9,462.7c0,2-1.6,3.6-3.7,3.6c-2.1,0-3.7-1.6-3.7-3.6c0-2,1.6-3.6,3.7-3.6
			C632.3,459.2,633.9,460.7,633.9,462.7z M627.3,462.7c0,1.6,1.3,2.8,2.9,2.8c1.6,0,2.9-1.2,2.9-2.8c0-1.6-1.3-2.8-2.9-2.8
			C628.6,459.9,627.3,461.2,627.3,462.7z"/>
		<path class="st65" d="M638.4,466.3v-7.1h0.8v7.1H638.4z"/>
		<path class="st65" d="M649.5,466.3l-4.3-5.7v5.7h-0.8v-7.1h0.8l4.3,5.7v-5.7h0.8v7.1H649.5z"/>
	</g>
	<linearGradient id="SVGID_7_" gradientUnits="userSpaceOnUse" x1="597.3326" y1="381.0296" x2="597.3326" y2="394.1266">
		<stop  offset="0" style="stop-color:#49148B"/>
		<stop  offset="1" style="stop-color:#49148B;stop-opacity:0.9"/>
	</linearGradient>
	<circle class="st70" cx="597.3" cy="387.6" r="6.5"/>
	<linearGradient id="SVGID_8_" gradientUnits="userSpaceOnUse" x1="575.6423" y1="406.9801" x2="591.4171" y2="406.9801">
		<stop  offset="0" style="stop-color:#49148B"/>
		<stop  offset="1" style="stop-color:#49148B"/>
	</linearGradient>
	<circle class="st71" cx="583.5" cy="407" r="7.9"/>
	<circle class="st68" cx="575.9" cy="386.3" r="1.7"/>
	<circle class="st68" cx="585.1" cy="384" r="2.3"/>
	<circle class="st68" cx="577.8" cy="394.2" r="1.2"/>
	<circle class="st68" cx="587.4" cy="393.4" r="2.9"/>
	<linearGradient id="SVGID_9_" gradientUnits="userSpaceOnUse" x1="609.07" y1="446.7442" x2="620.5475" y2="381.652">
		<stop  offset="0" style="stop-color:#12005E"/>
		<stop  offset="0.9" style="stop-color:#713BB3"/>
		<stop  offset="1" style="stop-color:#763EB7"/>
	</linearGradient>
	<path class="st72" d="M614.2,381c-3.2,0-6.3,0.5-9.2,1.3c1.4,1.6,2.2,3.7,2.2,6c0,5.3-4.3,9.5-9.5,9.5c-2.4,0-4.7-0.9-6.4-2.4
		c-0.4,1.1-1.3,1.9-2.5,2c3.4,1.8,5.8,5.4,5.8,9.5c0,6-4.8,10.8-10.8,10.8c-0.9,0-1.7-0.1-2.5-0.3c1.7,16.7,15.8,29.7,32.9,29.7
		c18.2,0,33-14.8,33-33C647.2,395.8,632.4,381,614.2,381z M619.3,419c-2.6,0.1-8.1,0-8.1,0c-1.5,11.8-10.6,10.9-10.6,10.9l3.9-17.5
		h20C624.5,412.4,621.8,418.9,619.3,419z M628.3,408.1h-22.6c1.2-6.7,5.1-7.4,5.1-7.4H635C632,408.1,628.3,408.1,628.3,408.1z"/>
</g>
</svg>
