<?xml version="1.0" encoding="utf-8"?>
<!-- Generator: Adobe Illustrator 19.1.0, SVG Export Plug-In . SVG Version: 6.00 Build 0)  -->
<svg version="1.0" id="katman_1" xmlns="http://www.w3.org/2000/svg" xmlns:xlink="http://www.w3.org/1999/xlink" x="0px" y="0px"
	 viewBox="-87 146.1 783.3 268.9" style="enable-background:new -87 146.1 783.3 268.9;" xml:space="preserve">
<style type="text/css">
	.st0{fill:#D2C1EB;}
	.st1{fill:#CBB7E8;}
	.st2{fill:#EFE8F6;}
	.st3{fill:#D8C8ED;}
	.st4{fill:#F2ECF9;}
	.st5{fill:#D9C9EE;}
	.st6{fill:#D7C7ED;}
	.st7{fill:#D8C9ED;}
	.st8{fill:#D3C1EB;}
	.st9{fill:url(#SVGID_1_);}
	.st10{fill:#E9E0F5;}
	.st11{fill:#DDD0F0;}
	.st12{fill:#EAE2F6;}
	.st13{fill:#D5C5EC;}
	.st14{fill:#DACBEE;}
	.st15{fill:#C4ACE5;}
	.st16{fill:#EDE5F8;}
	.st17{fill:#F7F4FC;}
	.st18{fill:#F2EEFA;}
	.st19{fill:#DFD2F1;}
	.st20{fill:#FAF7FD;}
	.st21{fill:#D2BFEB;}
	.st22{fill:#E7DDF4;}
	.st23{fill:#FCFBFE;}
	.st24{fill:#C8B2E7;}
	.st25{fill:#CAB5E7;}
	.st26{fill:#AE8EDB;}
	.st27{fill:#C5AEE5;}
	.st28{fill:#C9B4E7;}
	.st29{fill:#CAB5E6;}
	.st30{fill:#F6F3FB;}
	.st31{fill:#F9F6FC;}
	.st32{fill:#F2EEF9;}
	.st33{fill:#F7F4FB;}
	.st34{fill:#F0EAF8;}
	.st35{fill:#E2D7F2;}
	.st36{fill:#DACCEF;}
	.st37{fill:#DED1F0;}
	.st38{fill:#DFD3F1;}
	.st39{fill:#D9CAEE;}
	.st40{fill:#D9CBED;}
	.st41{fill:#DCCEEF;}
	.st42{fill:#C6AFE5;}
	.st43{fill:#CEBAE9;}
	.st44{fill:#C8B3E7;}
	.st45{fill:#C7B1E6;}
	.st46{fill:url(#triangle36_1_);}
	.st47{fill:#EFE9F8;}
	.st48{fill:#E8DFF5;}
	.st49{fill:#F5F1FB;}
	.st50{fill:#ECE4F6;}
	.st51{fill:#F8F6FC;}
	.st52{fill:#EDE6F7;}
	.st53{fill:url(#triangle36_2_);}
	.st54{fill:#FBFAFD;}
	.st55{fill:#EAE1F5;}
	.st56{fill:#DBCCEF;}
	.st57{fill:#C7B0E7;}
	.st58{fill:none;}
	.st59{fill:none;stroke:#4F4F4F;stroke-miterlimit:10;}
	.st60{fill:none;stroke:#4F4F4F;stroke-miterlimit:10;stroke-dasharray:5.015,5.015;}
	.st61{fill:none;stroke:#4F4F4F;stroke-miterlimit:10;stroke-dasharray:4.9476,4.9476;}
	.st62{fill:#FFFFFF;}
	.st63{fill:#4A148C;}
	.st64{fill:url(#SVGID_2_);}
	.st65{fill:url(#SVGID_3_);}
	.st66{fill:#49148B;}
	.st67{fill:url(#SVGID_4_);}
	.st68{fill:#4F4F4F;}
	.st69{fill:none;stroke:#AFAFAF;stroke-miterlimit:10;}
</style>
<g>
	<polygon id="triangle36_95_" class="st0" points="487.1,277.4 550.3,333.3 649.7,285.4 	"/>
	<polygon id="triangle36_94_" class="st1" points="550.3,333.3 563.9,349.2 649.7,285.4 	"/>
	<polygon id="triangle36_91_" class="st2" points="306.3,225.6 356,309.3 338,317.3 	"/>
	<polygon id="triangle36_90_" class="st3" points="356,309.3 374.1,381.1 338,317.3 	"/>
	<polygon id="triangle36_87_" class="st4" points="62.3,325.3 89.5,285.4 179.8,321.3 	"/>
	<polygon class="st5" points="344.5,415 374.1,381.1 282.6,415 	"/>
	<polygon class="st6" points="282.6,415 374.1,381.1 274.7,381.1 248.2,415 	"/>
	<polygon class="st7" points="5.3,415 62.3,325.3 -87.2,400.7 -87.2,415 	"/>
	<polygon class="st0" points="-87.2,280.8 -87.2,315.6 -50.6,329.3 	"/>
	<polygon class="st8" points="-87.2,400.7 62.3,325.3 -50.6,329.3 -87.2,390.7 	"/>
	
		<linearGradient id="SVGID_1_" gradientUnits="userSpaceOnUse" x1="-782.9991" y1="1357.7816" x2="-778.3152" y2="1353.0978" gradientTransform="matrix(21 0 0 -33 16345 44908.4258)">
		<stop  offset="0" style="stop-color:#F7F7F7"/>
		<stop  offset="1" style="stop-color:#FAFAFA"/>
	</linearGradient>
	<polygon class="st9" points="-87.2,146.1 -87.2,184 -28,146.1 	"/>
	<polygon id="triangle36_85_" class="st10" points="179.8,321.3 306.3,225.6 283.8,337.3 	"/>
	<polygon id="triangle36_84_" class="st11" points="274.7,381.1 374.1,381.1 283.8,337.3 	"/>
	<polygon id="triangle36_83_" class="st12" points="306.3,225.6 338,317.3 283.8,337.3 	"/>
	<polygon id="triangle36_82_" class="st13" points="338,317.3 374.1,381.1 283.8,337.3 	"/>
	<polygon id="triangle36_81_" class="st14" points="356,309.3 374.1,381.1 514.2,321.3 	"/>
	<polygon id="triangle36_80_" class="st14" points="356,309.3 487.1,277.4 514.2,321.3 	"/>
	<polygon id="triangle36_79_" class="st5" points="487.1,277.4 550.3,333.3 514.2,321.3 	"/>
	<polygon id="triangle36_78_" class="st15" points="550.3,333.3 563.9,349.2 514.2,321.3 	"/>
	<polygon id="triangle36_76_" class="st16" points="-50.6,329.3 62.3,325.3 57.8,301.4 	"/>
	<polygon id="triangle36_75_" class="st17" points="39.8,157.8 89.5,285.4 57.8,301.4 	"/>
	<polygon id="triangle36_74_" class="st18" points="62.3,325.3 89.5,285.4 57.8,301.4 	"/>
	<polygon class="st19" points="-87.2,247 -87.2,280.8 -50.6,329.3 57.8,301.4 	"/>
	<polygon class="st20" points="-87.2,247 57.8,301.4 39.8,157.8 -87.2,216.9 	"/>
	<polygon class="st21" points="138.6,415 62.3,325.3 5.3,415 	"/>
	<polygon class="st22" points="145.9,415 179.8,321.3 62.3,325.3 138.6,415 	"/>
	<polygon id="triangle36_72_" class="st23" points="319.9,145.8 333.5,146.1 247.6,146.1 	"/>
	<polygon class="st24" points="696,415 696,411.2 686.4,415 	"/>
	<polygon class="st25" points="696,267.1 649.7,285.4 696,317.8 	"/>
	<polygon class="st26" points="647.6,415 681.4,397.1 563.9,349.2 582.5,415 	"/>
	<polygon id="triangle36_66_" class="st24" points="563.9,349.2 649.7,285.4 681.4,397.1 	"/>
	<polygon class="st27" points="681.4,415 681.4,397.1 647.6,415 	"/>
	<polygon class="st28" points="696,317.8 649.7,285.4 681.4,397.1 696,394.2 	"/>
	<polygon class="st29" points="686.4,415 696,411.2 696,394.2 681.4,397.1 681.4,415 	"/>
	<polygon id="triangle36_58_" class="st30" points="39.8,157.8 89.5,285.4 279.2,189.7 	"/>
	<polygon id="triangle36_57_" class="st31" points="39.8,157.8 103,146.1 279.2,189.7 	"/>
	<polygon id="triangle36_56_" class="st32" points="89.5,285.4 179.8,321.3 279.2,189.7 	"/>
	<polygon id="triangle36_55_" class="st33" points="103,146.1 247.6,146.1 279.2,189.7 	"/>
	<polygon id="triangle36_54_" class="st34" points="179.8,321.3 306.3,225.6 279.2,189.7 	"/>
	<polygon id="triangle36_53_" class="st33" points="247.6,146.1 319.9,145.8 279.2,189.7 	"/>
	<polygon class="st35" points="163,415 220.5,397.1 179.8,321.3 145.9,415 	"/>
	<polygon class="st36" points="227.3,415 220.5,397.1 163,415 	"/>
	<polygon id="triangle36_51_" class="st37" points="179.8,321.3 283.8,337.3 220.5,397.1 	"/>
	<polygon class="st38" points="248.2,415 274.7,381.1 220.5,397.1 227.3,415 	"/>
	<polygon id="triangle36_50_" class="st39" points="274.7,381.1 283.8,337.3 220.5,397.1 	"/>
	<polygon class="st30" points="696,146.1 663.3,146.1 696,146.1 	"/>
	<polygon class="st40" points="-87.2,315.6 -87.2,340.8 -50.6,329.3 	"/>
	<polygon class="st41" points="-87.2,340.8 -87.2,390.7 -50.6,329.3 	"/>
	<polygon class="st42" points="406.1,415 374.1,381.1 344.5,415 	"/>
	<polygon class="st43" points="484.3,415 514.2,321.3 374.1,381.1 406.1,415 	"/>
	<polygon class="st44" points="512.7,415 563.9,349.2 514.2,321.3 484.3,415 	"/>
	<polygon class="st45" points="582.5,415 563.9,349.2 512.7,415 	"/>
	
		<linearGradient id="triangle36_1_" gradientUnits="userSpaceOnUse" x1="-774.3334" y1="1344.3146" x2="-771.7968" y2="1341.778" gradientTransform="matrix(32 0 0 -9 24908.9961 12232.2998)">
		<stop  offset="0" style="stop-color:#FDFDFD"/>
		<stop  offset="1" style="stop-color:#F9F9F9"/>
	</linearGradient>
	<polygon id="triangle36_35_" class="st46" points="103,146.1 247.6,146.1 134.6,146.1 	"/>
	<polygon id="triangle36_27_" class="st47" points="279.2,189.7 306.3,225.6 342.5,181.7 	"/>
	<polygon id="triangle36_26_" class="st4" points="279.2,189.7 319.9,145.8 342.5,181.7 	"/>
	<polygon id="triangle36_25_" class="st48" points="306.3,225.6 356,309.3 342.5,181.7 	"/>
	<polygon id="triangle36_24_" class="st49" points="319.9,145.8 419.3,146.1 342.5,181.7 	"/>
	<polygon id="triangle36_23_" class="st50" points="356,309.3 487.1,277.4 342.5,181.7 	"/>
	<polygon id="triangle36_22_" class="st51" points="419.3,146.1 500.6,146.1 342.5,181.7 	"/>
	<polygon id="triangle36_21_" class="st52" points="487.1,277.4 500.6,146.1 342.5,181.7 	"/>
	
		<linearGradient id="triangle36_2_" gradientUnits="userSpaceOnUse" x1="-780.2996" y1="1355.7506" x2="-773.695" y2="1349.146" gradientTransform="matrix(19 0 0 -19 14828 25847.5996)">
		<stop  offset="0" style="stop-color:#F3F3F3"/>
		<stop  offset="1" style="stop-color:#FCFCFC"/>
	</linearGradient>
	<polygon id="triangle36_17_" class="st53" points="39.8,157.8 103,146.1 17.2,146.1 	"/>
	<polygon class="st54" points="-87.2,206.1 17.2,146.1 -28,146.1 -87.2,184 	"/>
	<polygon class="st23" points="-87.2,216.9 39.8,157.8 17.2,146.1 -87.2,206.1 	"/>
	<polygon id="triangle36_16_" class="st32" points="487.1,277.4 500.6,146.1 613.6,146.1 	"/>
	<polygon id="triangle36_15_" class="st55" points="487.1,277.4 649.7,285.4 613.6,146.1 	"/>
	<polygon class="st56" points="696,146.1 613.6,146.1 649.7,285.4 696,176.6 	"/>
	<polygon class="st32" points="696,146.1 663.3,146.1 613.6,146.1 696,146.1 	"/>
	<polygon class="st11" points="696,176.6 649.7,285.4 696,243.6 	"/>
	<polygon class="st57" points="696,243.6 649.7,285.4 696,267.1 	"/>
</g>
<title>Asset 6</title>
<rect x="-86.4" y="146.1" class="st58" width="782.3" height="268.9"/>
<g>
	<g>
		<polyline class="st59" points="696,411.8 696,414.3 693.5,414.3 		"/>
		<line class="st60" x1="688.5" y1="414.3" x2="-81.3" y2="414.3"/>
		<polyline class="st59" points="-83.9,414.3 -86.4,414.3 -86.4,411.8 		"/>
		<line class="st61" x1="-86.4" y1="406.9" x2="-86.4" y2="152.1"/>
		<polyline class="st59" points="-86.4,149.6 -86.4,147.1 -83.9,147.1 		"/>
		<line class="st60" x1="-78.8" y1="147.1" x2="691" y2="147.1"/>
		<polyline class="st59" points="693.5,147.1 696,147.1 696,149.6 		"/>
		<line class="st61" x1="696" y1="154.6" x2="696" y2="409.4"/>
	</g>
</g>
<rect x="358.4" y="218.1" class="st62" width="125.7" height="127.8"/>
<g>
	<g>
		<path class="st63" d="M65.7,338.2v2.7h4.9v2h-4.9v4.1h-2.4v-10.8H71l0,2H65.7z"/>
		<path class="st63" d="M87.9,341.6c0,3.1-2.5,5.5-5.8,5.5s-5.8-2.4-5.8-5.5c0-3.1,2.5-5.5,5.8-5.5S87.9,338.4,87.9,341.6z
			 M78.8,341.6c0,1.9,1.5,3.4,3.3,3.4c1.8,0,3.3-1.5,3.3-3.4s-1.5-3.3-3.3-3.3C80.3,338.2,78.8,339.7,78.8,341.6z"/>
		<path class="st63" d="M101.2,344.8v2.1h-7.1v-10.8h2.4v8.7H101.2z"/>
		<path class="st63" d="M116.8,347v-7.3l-2.9,6.2h-1.6l-2.9-6.2v7.3h-2.2v-10.8h2.7l3.1,6.6l3.1-6.6h2.7V347H116.8z"/>
		<path class="st63" d="M135,337.7l-0.7,0.9c-0.8-0.8-2-1.4-3.2-1.4c-2.4,0-4.4,1.9-4.4,4.3c0,2.4,2,4.3,4.4,4.3
			c1.2,0,2.3-0.5,3.2-1.3l0.8,0.8c-1.1,1-2.5,1.7-4,1.7c-3.1,0-5.6-2.4-5.6-5.5c0-3,2.5-5.4,5.6-5.4
			C132.5,336.1,134,336.7,135,337.7z"/>
		<path class="st63" d="M151.9,341.6c0,3-2.5,5.5-5.6,5.5c-3.2,0-5.7-2.4-5.7-5.5c0-3.1,2.5-5.4,5.7-5.4
			C149.4,336.1,151.9,338.5,151.9,341.6z M141.8,341.6c0,2.4,2,4.3,4.4,4.3c2.4,0,4.4-1.9,4.4-4.3s-2-4.3-4.4-4.3
			C143.8,337.3,141.8,339.2,141.8,341.6z"/>
		<path class="st63" d="M158.8,347v-10.8h1.2V347H158.8z"/>
		<path class="st63" d="M175.6,347l-6.5-8.7v8.7h-1.2v-10.8h1.3l6.5,8.7v-8.7h1.2V347H175.6z"/>
	</g>
	<linearGradient id="SVGID_2_" gradientUnits="userSpaceOnUse" x1="96.1871" y1="217.0896" x2="96.1871" y2="237.0421">
		<stop  offset="0" style="stop-color:#49148B"/>
		<stop  offset="1" style="stop-color:#49148B;stop-opacity:0.9"/>
	</linearGradient>
	<circle class="st64" cx="96.2" cy="227.1" r="10"/>
	<linearGradient id="SVGID_3_" gradientUnits="userSpaceOnUse" x1="63.1431" y1="256.6238" x2="87.1751" y2="256.6238">
		<stop  offset="0" style="stop-color:#49148B"/>
		<stop  offset="1" style="stop-color:#49148B"/>
	</linearGradient>
	<circle class="st65" cx="75.2" cy="256.6" r="12"/>
	<circle class="st66" cx="63.5" cy="225.1" r="2.6"/>
	<circle class="st66" cx="77.5" cy="221.6" r="3.4"/>
	<circle class="st66" cx="66.4" cy="237.2" r="1.8"/>
	<circle class="st66" cx="81" cy="236" r="4.5"/>
	<linearGradient id="SVGID_4_" gradientUnits="userSpaceOnUse" x1="114.0684" y1="317.2024" x2="131.5538" y2="218.0378">
		<stop  offset="0" style="stop-color:#12005E"/>
		<stop  offset="0.9" style="stop-color:#713BB3"/>
		<stop  offset="1" style="stop-color:#763EB7"/>
	</linearGradient>
	<path class="st67" d="M121.9,217.1c-4.8,0-9.5,0.7-14,2c2.1,2.5,3.3,5.7,3.3,9.2c0,8-6.5,14.5-14.5,14.5c-3.7,0-7.1-1.4-9.7-3.7
		c-0.5,1.6-2,2.8-3.8,3c5.2,2.7,8.8,8.2,8.8,14.5c0,9.1-7.4,16.4-16.4,16.4c-1.3,0-2.6-0.2-3.8-0.4c2.6,25.4,24,45.2,50.1,45.2
		c27.8,0,50.3-22.5,50.3-50.3C172.2,239.7,149.7,217.1,121.9,217.1z M129.6,274.9c-3.9,0.1-12.3,0-12.3,0
		c-2.3,18-16.2,16.6-16.2,16.6l6-26.7h30.5C137.6,264.8,133.5,274.8,129.6,274.9z M143.4,258.3h-34.5c1.9-10.1,7.7-11.3,7.7-11.3h37
		C149,258.3,143.4,258.3,143.4,258.3z"/>
</g>
<g>
	<path class="st68" d="M380.9,236.2c2.1,0,3.3,1,3.3,2.8c0,1.9-1.2,2.9-3.3,2.9h-2.2v2.7h-1v-8.4H380.9z M378.7,241h2.2
		c1.5,0,2.4-0.7,2.4-2c0-1.3-0.9-1.9-2.4-1.9h-2.2V241z"/>
	<path class="st68" d="M386,242.5l-0.9,2.1h-1l3.8-8.4h1l3.8,8.4h-1l-0.9-2.1H386z M388.3,237.3l-1.9,4.3h3.8L388.3,237.3z"/>
	<path class="st68" d="M397,236.2c2.1,0,3.3,1,3.3,2.8c0,1.9-1.2,2.9-3.3,2.9h-2.2v2.7h-1v-8.4H397z M394.8,241h2.2
		c1.5,0,2.4-0.7,2.4-2c0-1.3-0.9-1.9-2.4-1.9h-2.2V241z"/>
	<path class="st68" d="M402.9,237.1v2.8h4.2v0.9h-4.2v2.9h4.9v0.9h-5.9v-8.4h5.7v0.9H402.9z"/>
	<path class="st68" d="M413.5,241.9c-0.2,0-0.4,0-0.6,0h-2.2v2.7h-1v-8.4h3.2c2.1,0,3.3,1,3.3,2.8c0,1.4-0.7,2.3-1.9,2.7l2,2.9h-1.1
		L413.5,241.9z M412.9,241c1.5,0,2.4-0.7,2.4-2c0-1.3-0.9-1.9-2.4-1.9h-2.2v3.9H412.9z"/>
	<path class="st68" d="M428.8,244.6l-2.3-7.1l-2.3,7.1h-1l-2.8-8.4h1l2.3,7.3l2.3-7.3l1,0l2.3,7.3l2.3-7.3h1l-2.8,8.4H428.8z"/>
	<path class="st68" d="M434.1,242.5l-0.9,2.1h-1l3.8-8.4h1l3.8,8.4h-1l-0.9-2.1H434.1z M436.4,237.3l-1.9,4.3h3.8L436.4,237.3z"/>
	<path class="st68" d="M446.6,243.7v0.9H442v-8.4h1v7.5H446.6z"/>
	<path class="st68" d="M452.8,243.7v0.9h-4.6v-8.4h1v7.5H452.8z"/>
	<path class="st68" d="M455.3,237.1v2.8h4.2v0.9h-4.2v2.9h4.9v0.9h-5.9v-8.4h5.7v0.9H455.3z"/>
	<path class="st68" d="M464.7,237.1v7.5h-1v-7.5H461v-0.9h6.4v0.9H464.7z"/>
</g>
<line class="st69" x1="376.4" y1="264.8" x2="466.3" y2="264.8"/>
<line class="st69" x1="376.4" y1="278" x2="466.3" y2="278"/>
<line class="st69" x1="376.4" y1="291.2" x2="466.3" y2="291.2"/>
<line class="st69" x1="376.4" y1="304.4" x2="466.3" y2="304.4"/>
<line class="st69" x1="376.4" y1="317.6" x2="466.3" y2="317.6"/>
<line class="st69" x1="376.4" y1="330.8" x2="466.3" y2="330.8"/>
</svg>
